<svg xmlns="http://www.w3.org/2000/svg" viewBox="0 0 495.256 495.256" width="512" height="512"><path d="M300.682 237.74l-.034.002c-4.418.207-8.179-3.22-8.386-7.64-.206-4.4 3.205-8.16 7.604-8.384a7.993 7.993 0 015.812 2.081 7.975 7.975 0 012.611 5.554c.203 4.4-3.21 8.163-7.607 8.387zm-.673-13.707c-3.152.161-5.575 2.834-5.429 5.96a5.708 5.708 0 005.96 5.431l.084 1.157-.059-1.159c3.125-.159 5.55-2.833 5.406-5.961a5.657 5.657 0 00-1.857-3.948 5.667 5.667 0 00-4.105-1.48zM130.856 155.073l-.034.002c-4.418.207-8.179-3.22-8.386-7.64-.206-4.4 3.205-8.16 7.604-8.384a7.993 7.993 0 015.812 2.081 7.975 7.975 0 012.611 5.554c.202 4.4-3.211 8.163-7.607 8.387zm-.674-13.707c-3.152.161-5.575 2.834-5.429 5.96a5.708 5.708 0 005.96 5.431l.084 1.157-.059-1.159c3.125-.159 5.55-2.833 5.406-5.961a5.657 5.657 0 00-1.857-3.948 5.667 5.667 0 00-4.105-1.48zM440.449 76.353l-.034.002c-4.418.207-8.179-3.22-8.386-7.64-.206-4.4 3.205-8.16 7.604-8.384a7.993 7.993 0 015.812 2.081 7.975 7.975 0 012.611 5.554c.203 4.4-3.211 8.163-7.607 8.387zm-.118-2.317c3.125-.159 5.55-2.833 5.406-5.961a5.657 5.657 0 00-1.857-3.948 5.657 5.657 0 00-4.105-1.481c-3.152.161-5.575 2.834-5.429 5.96a5.708 5.708 0 005.96 5.431M441.996 317.638l-.034.002c-4.418.207-8.179-3.22-8.386-7.64-.206-4.4 3.205-8.16 7.604-8.384a7.993 7.993 0 015.812 2.081 7.975 7.975 0 012.611 5.554c.202 4.4-3.211 8.163-7.607 8.387zm-.118-2.317c3.125-.159 5.55-2.833 5.406-5.961a5.657 5.657 0 00-1.857-3.948 5.657 5.657 0 00-4.105-1.481c-3.152.161-5.575 2.834-5.429 5.96a5.708 5.708 0 005.96 5.431M222.364 16.032l-.034.002c-4.418.207-8.179-3.22-8.386-7.64-.206-4.4 3.205-8.16 7.604-8.384a7.993 7.993 0 015.812 2.081 7.975 7.975 0 012.611 5.554c.203 4.4-3.21 8.163-7.607 8.387zm-.118-2.317c3.125-.159 5.55-2.833 5.406-5.961a5.657 5.657 0 00-1.857-3.948 5.657 5.657 0 00-4.105-1.481c-3.152.161-5.575 2.834-5.429 5.96a5.708 5.708 0 005.96 5.431M227.005 353.212l-.034.002c-4.418.207-8.179-3.22-8.386-7.64-.206-4.4 3.205-8.16 7.604-8.384a7.993 7.993 0 015.812 2.081 7.975 7.975 0 012.611 5.554c.202 4.4-3.211 8.163-7.607 8.387zm-.118-2.317c3.125-.159 5.55-2.833 5.406-5.961a5.657 5.657 0 00-1.857-3.948 5.657 5.657 0 00-4.105-1.481c-3.152.161-5.575 2.834-5.429 5.96a5.708 5.708 0 005.96 5.431" fill="#241726"/><path d="M262.656 363.381s-2.289-17.378 14.438-11.755c16.727 5.623 11.277 21.534 4.9 16.089-6.377-5.445 5.588-23.911 18.388-15.688s9.937 24.178.858 25.356c-9.079 1.177 5.496-18.578 16.934-6.377 11.437 12.2-13.534 34.444-23.747 26.266-10.212-8.178-2.22-21.378.229-13.333 2.45 8.045-4.157 15.933-22.269 15.621-18.113-.312-9.868-28.178-3.537-20.067s-4.18 17.267-16.957 7.711 1.799-29.312 10.763-23.823z" fill="#fff"/><path d="M273.416 400.728l-1.049-.009c-5.938-.102-10.116-3.145-11.589-8.385-3.124-.396-6.416-1.837-9.579-4.203-5.007-3.744-6.702-9.429-4.651-15.593 2.1-6.317 7.694-11.264 12.738-11.264a7.6 7.6 0 012.105.291c-.023-2.419.351-6.535 2.805-9.332 2.739-3.124 7.25-3.729 13.27-1.707 2.32.781 4.355 1.793 6.061 3.019 4.824-5.093 11.698-6.211 17.484-2.495 5.53 3.554 8.891 9.018 9.165 14.805 3.247.093 6.222 1.557 8.847 4.357 3.559 3.798 4.216 8.902 1.847 14.37-3.602 8.316-13.44 15.612-21.053 15.612-2.383.001-4.441-.679-6.113-2.018-.8-.639-1.52-1.331-2.157-2.066-4 3.026-10.231 4.618-18.131 4.618zm-10.178-8.304c1.033 2.928 3.489 5.878 9.169 5.976l1.008.009c9.108 0 14.083-2.137 16.752-4.167-2.549-4.126-2.354-8.634-.936-11.429.82-1.614 2.012-2.54 3.267-2.54.841 0 2.386.433 3.267 3.327 1.226 4.028.317 7.967-2.492 10.964a14.125 14.125 0 001.878 1.802c1.251 1 2.818 1.509 4.663 1.508 6.681 0 15.701-6.774 18.923-14.214 1.4-3.231 2.293-7.912-1.412-11.862-2.18-2.327-4.604-3.545-7.209-3.623-.546 5.555-4.022 9.747-8.727 10.358-.319.041-.614.06-.886.06-2.325 0-3.21-1.421-3.265-2.749-.131-3.273 4.586-8.775 10.621-9.819-.22-5.057-3.195-9.867-8.107-13.021-4.826-3.104-10.365-2.184-14.437 2.022 3.951 3.761 4.688 8.389 3.584 11.477-.768 2.152-2.415 3.49-4.298 3.491h-.002c-1.128 0-2.291-.483-3.36-1.396-3.521-3.005-2.384-8.874.795-13.264-1.489-1.047-3.272-1.922-5.311-2.608-5.055-1.702-8.675-1.37-10.789 1.038-2.902 3.309-2.139 9.405-2.13 9.466.057.444-.145.881-.519 1.125a1.163 1.163 0 01-1.237.016 5.236 5.236 0 00-2.766-.776c-4.035 0-8.764 4.341-10.538 9.676-.811 2.44-2.059 8.59 3.843 13.004 2.578 1.928 5.218 3.17 7.719 3.639-.514-4.5.863-8.885 2.678-11.139 1.013-1.256 2.193-1.92 3.417-1.92.847 0 2.118.334 3.362 1.926 2.248 2.882 2.76 6.132 1.4 8.915-1.338 2.746-4.336 4.518-7.925 4.728zm29.261-9.831c-.213 0-.727.346-1.199 1.271-1.038 2.044-1.208 5.512.605 8.752 1.994-2.34 2.581-5.256 1.64-8.341-.37-1.226-.839-1.682-1.046-1.682zm-26.096-3.42c-.489 0-1.06.375-1.609 1.056-1.547 1.92-2.68 6.022-2.116 9.895 2.939-.048 5.383-1.358 6.403-3.447.954-1.956.537-4.315-1.146-6.471-.367-.471-.931-1.033-1.532-1.033zm41.354-10.766c-4.864 1.081-8.272 5.546-8.199 7.342.009.221.023.523.947.523.179 0 .376-.014.587-.041 3.481-.451 6.091-3.588 6.665-7.824zm-23.928-11.596c-2.744 3.822-3.267 8.156-1.083 10.022 1.654 1.408 3.254.893 3.972-1.111.833-2.338.215-5.891-2.889-8.911z" fill="#241726"/><path d="M38.475 164.42s-2.289-17.378 14.438-11.755c16.727 5.623 11.277 21.534 4.9 16.089s5.588-23.911 18.388-15.688 9.937 24.178.858 25.356 5.496-18.578 16.934-6.377-13.534 34.444-23.747 26.266-2.22-21.378.229-13.333-4.157 15.933-22.269 15.621-9.868-28.178-3.537-20.067-4.18 17.267-16.957 7.711c-12.777-9.557 1.799-29.312 10.763-23.823z" fill="#fff"/><path d="M49.234 201.767l-1.049-.009c-5.936-.102-10.114-3.144-11.587-8.385-3.124-.394-6.419-1.836-9.582-4.202-5.007-3.745-6.702-9.429-4.651-15.593 2.1-6.317 7.696-11.265 12.738-11.265.727 0 1.43.097 2.105.291-.023-2.419.351-6.535 2.805-9.332 2.739-3.122 7.25-3.729 13.27-1.707 2.32.781 4.355 1.794 6.061 3.019 2.877-3.035 6.55-4.756 10.218-4.756 2.485 0 4.93.761 7.266 2.261 5.531 3.555 8.89 9.019 9.165 14.805 3.247.092 6.222 1.557 8.847 4.357 3.559 3.798 4.216 8.902 1.847 14.37-3.602 8.316-13.44 15.612-21.053 15.612-2.383.001-4.441-.679-6.113-2.018a16.548 16.548 0 01-2.157-2.065c-3.999 3.024-10.229 4.617-18.13 4.617zm-10.177-8.303c1.035 2.927 3.489 5.877 9.169 5.975l1.008.009c9.108 0 14.083-2.137 16.752-4.165-2.549-4.126-2.354-8.634-.936-11.429.82-1.614 2.012-2.541 3.267-2.541.841 0 2.386.433 3.267 3.327 1.228 4.029.317 7.968-2.492 10.965.551.638 1.18 1.242 1.878 1.801 1.251 1 2.818 1.509 4.663 1.508 6.681 0 15.701-6.774 18.923-14.214 1.4-3.231 2.293-7.912-1.412-11.862-2.18-2.327-4.604-3.545-7.209-3.623-.546 5.555-4.022 9.747-8.727 10.358-3.072.411-4.09-1.205-4.148-2.689-.134-3.273 4.583-8.775 10.619-9.819-.22-5.056-3.195-9.866-8.107-13.021-4.826-3.103-10.363-2.183-14.435 2.022 3.951 3.761 4.685 8.388 3.584 11.476-.77 2.154-2.417 3.491-4.3 3.493h-.001c-1.128 0-2.291-.483-3.36-1.396-3.521-3.005-2.381-8.874.798-13.263-1.491-1.048-3.274-1.924-5.313-2.609-5.057-1.7-8.678-1.368-10.789 1.038-2.902 3.309-2.139 9.405-2.13 9.466.057.444-.145.881-.519 1.125-.376.244-.856.25-1.237.016a5.236 5.236 0 00-2.766-.776c-4.035 0-8.761 4.341-10.538 9.677-1.715 5.157-.315 9.895 3.843 13.004 2.578 1.928 5.218 3.17 7.721 3.639-.514-4.502.863-8.887 2.678-11.14 1.013-1.256 2.193-1.92 3.417-1.92.845 0 2.116.334 3.36 1.926 2.248 2.882 2.76 6.132 1.4 8.917-1.342 2.742-4.339 4.514-7.928 4.725zm29.261-9.832c-.213 0-.727.346-1.199 1.271-1.038 2.045-1.208 5.514.605 8.755 1.996-2.34 2.581-5.257 1.64-8.343-.371-1.227-.84-1.683-1.046-1.683zm-26.094-3.42c-.489 0-1.06.375-1.611 1.056-1.545 1.919-2.68 6.022-2.116 9.895 2.941-.048 5.383-1.359 6.403-3.447.954-1.956.537-4.315-1.146-6.471-.367-.471-.932-1.033-1.53-1.033zm41.351-10.766c-4.864 1.081-8.27 5.548-8.197 7.342.009.222.02.525.945.525.181 0 .376-.014.587-.041 3.482-.452 6.092-3.59 6.665-7.826zm-23.928-11.595c-2.741 3.821-3.267 8.155-1.083 10.021 1.658 1.412 3.258.892 3.972-1.112.836-2.338.215-5.89-2.889-8.909zM272.988 186.654c-.51 0-.965-.292-1.219-.783a362.583 362.583 0 01-4.653-9.404 99.641 99.641 0 01-5.26.156c-6.015 0-6.95-.758-7.392-1.535-.285-.502-.271-1.09.041-1.614.852-1.431 4.984-5.265 7.761-7.762-4.147-9.958-3.925-12.462-2.21-13.226.338-.151.727-.13 1.05.055.046.026 4.492 2.587 9.71 5.79 8.624-7.148 9.725-7.148 10.26-7.148.619 0 1.294.624 1.325 1.24.057 1.117-1.282 7.68-2.195 11.91 7.766 5.243 8.444 6.703 8.46 7.743.007.523-.233.998-.662 1.302-1.287.916-6.205 1.677-10.407 2.178-2.795 11.098-3.599 11.098-4.609 11.098zm-3.374-10.341a389.34 389.34 0 003.379 6.856c.438-1.195 1.124-3.374 2.14-7.336-1.837.19-3.702.353-5.519.48zm-12.591-2.324c.71.148 2.115.315 4.834.315a92.44 92.44 0 004.187-.105 245.814 245.814 0 01-2.816-6.228c-3.362 3.044-5.315 4.997-6.205 6.018zm8.027-7.652a243.011 243.011 0 003.491 7.724c2.35-.152 4.807-.365 7.194-.625.64-2.608 1.281-5.389 1.867-8.051a267.386 267.386 0 00-6.582-4.202 280.872 280.872 0 00-5.97 5.154zm14.621.44a359.914 359.914 0 01-1.477 6.37c4.172-.527 6.685-1.047 7.819-1.398-.598-.677-2.176-2.117-6.342-4.972zM261.236 155.3c.139 1.143.747 3.598 2.866 8.778a291.307 291.307 0 014.836-4.176 475.44 475.44 0 00-7.702-4.602zm11.665 4.32a268.618 268.618 0 015.229 3.334c.863-4.031 1.427-6.976 1.719-8.702-1.238.844-3.444 2.484-6.948 5.368zM243.994 228.639c-.859 0-1.67 0-3.931-9.003-7.629-1.467-8.274-2.334-8.521-2.667-.215-.289-.308-.819-.208-1.166.138-.489.458-1.622 9.171-5.135 3.131-8.161 4.191-8.161 4.898-8.161.367 0 .87.263 1.09.557.56.751 1.067 2.703 1.835 5.827.242.981.535 2.166.702 2.686.458.204 1.466.566 2.304.867 4.481 1.606 5.637 2.154 5.848 3.224.077.401-.127.987-.43 1.26-.911.816-5.243 2.424-7.515 3.233-3.691 8.398-4.479 8.438-5.177 8.476-.021.002-.048.002-.066.002zm-9.5-12.667c1.525.44 4.305 1.071 6.729 1.523.446.084.804.421.913.863.621 2.512 1.43 5.374 2.014 7.008.845-1.521 2.125-4.213 3.163-6.592.129-.296.374-.525.677-.631 2.071-.73 4.411-1.624 5.87-2.262-1.022-.43-2.411-.928-3.31-1.251-2.56-.919-3.043-1.117-3.371-1.56-.288-.384-.464-1.03-1.103-3.623-.238-.972-.605-2.463-.933-3.58-.759 1.451-1.822 3.917-2.649 6.101a1.16 1.16 0 01-.655.666c-2.692 1.074-5.746 2.443-7.345 3.338zM49.107 370.935c-.856 0-1.668 0-3.929-9.002-7.629-1.467-8.274-2.334-8.521-2.667-.215-.289-.308-.819-.208-1.166.138-.489.458-1.622 9.171-5.136 3.131-8.16 4.191-8.16 4.898-8.16.365 0 .87.263 1.09.557.56.75 1.067 2.702 1.835 5.827.242.981.535 2.166.702 2.686.458.204 1.466.565 2.302.865 4.484 1.608 5.639 2.154 5.85 3.224.077.401-.127.987-.43 1.26-.911.817-5.243 2.424-7.515 3.233-3.691 8.398-4.479 8.439-5.177 8.476-.02.003-.047.003-.068.003zm-9.497-12.666c1.525.44 4.303 1.071 6.729 1.523.446.084.804.421.913.863.621 2.511 1.43 5.373 2.014 7.007.845-1.521 2.125-4.213 3.163-6.592.129-.296.374-.525.677-.631 2.073-.728 4.414-1.625 5.87-2.262-1.022-.429-2.411-.928-3.31-1.251-2.56-.918-3.043-1.116-3.371-1.559-.288-.384-.464-1.03-1.103-3.622-.238-.973-.605-2.464-.933-3.581-.759 1.45-1.822 3.916-2.649 6.1a1.16 1.16 0 01-.655.666c-2.692 1.074-5.746 2.444-7.345 3.339zM132.631 29.115c-.859 0-1.67 0-3.931-9.003-7.629-1.467-8.274-2.334-8.521-2.667-.215-.289-.308-.819-.208-1.166.138-.489.458-1.622 9.171-5.135 3.131-8.161 4.191-8.161 4.898-8.161.367 0 .87.263 1.09.557.56.751 1.067 2.703 1.835 5.827.242.981.535 2.166.702 2.686.458.204 1.466.566 2.304.867 4.481 1.606 5.637 2.154 5.848 3.224.077.401-.127.987-.43 1.26-.911.816-5.243 2.424-7.515 3.233-3.691 8.398-4.479 8.438-5.177 8.476a.738.738 0 01-.066.002zm-9.5-12.667c1.525.44 4.305 1.071 6.729 1.523.446.084.804.421.913.863.621 2.511 1.43 5.374 2.014 7.008.845-1.521 2.125-4.213 3.163-6.592.129-.296.374-.525.677-.631 2.071-.73 4.411-1.624 5.87-2.262-1.022-.43-2.411-.928-3.31-1.251-2.56-.919-3.043-1.117-3.371-1.56-.288-.384-.464-1.03-1.103-3.623-.238-.972-.605-2.463-.933-3.58-.759 1.451-1.822 3.917-2.649 6.101a1.16 1.16 0 01-.655.666c-2.691 1.074-5.745 2.443-7.345 3.338zM351.35 350.899c-.859 0-1.672 0-3.933-9.002-7.626-1.469-8.295-2.365-8.519-2.667-.217-.289-.31-.819-.211-1.166.136-.489.455-1.622 9.174-5.136 3.131-8.161 4.191-8.161 4.898-8.161.365 0 .87.263 1.09.556.56.753 1.067 2.706 1.835 5.834.242.979.532 2.16.7 2.681.458.204 1.468.565 2.306.867 4.479 1.606 5.635 2.152 5.845 3.223.077.401-.127.987-.43 1.26-.909.816-5.24 2.424-7.513 3.233-3.691 8.398-4.479 8.439-5.177 8.476-.019.002-.047.002-.065.002zm-9.502-12.667c1.525.441 4.305 1.072 6.729 1.524.446.084.804.421.913.863.621 2.513 1.432 5.375 2.014 7.008.845-1.52 2.125-4.213 3.165-6.593.129-.296.374-.525.677-.631 2.071-.728 4.411-1.624 5.868-2.262-1.02-.429-2.408-.928-3.308-1.25-2.56-.919-3.043-1.117-3.371-1.56-.288-.386-.467-1.031-1.103-3.618-.24-.973-.607-2.466-.933-3.583-.759 1.45-1.822 3.916-2.649 6.099a1.16 1.16 0 01-.655.666c-2.691 1.074-5.745 2.442-7.347 3.337z" fill="#241726"/><path d="M76.339 79.808c-16.485 6.775-12.694 28.818-9.247 40.71l9.262-3.024s-7.692-26.796 6.157-28.527c13.849-1.731 21.615 19.674 21.615 19.674l11.567-3.136c-5.511-11.437-19.281-33.946-39.354-25.697z" fill="#e5b200"/><path d="M68.527 57.868c47.793-16.531 66.309 25.665 71.36 41.08l7.908-2.144s-24.017-66.308-78.723-51.367c-54.707 14.942-33.04 85.221-33.04 85.221l8.606-2.81c-5.124-16.617-13.258-57.131 23.889-69.98z" fill="#e17b8d"/><path d="M68.527 57.868c-37.148 12.849-29.013 53.364-23.889 69.981l11.337-3.701c-5.288-17.407-11.056-52.534 25.581-58.788 24.01-4.098 40.297 23.083 46.857 36.699l11.475-3.11c-5.052-15.417-23.568-57.613-71.361-41.081z" fill="#b1739a"/><path d="M81.556 65.36c-36.637 6.254-30.87 41.381-25.581 58.788l11.118-3.63c-3.448-11.892-7.238-33.936 9.247-40.71 20.072-8.249 33.843 14.261 39.356 25.698l12.717-3.447c-6.56-13.616-22.847-40.797-46.857-36.699z" fill="#e17e0e"/><path d="M44.637 129.009a1.16 1.16 0 01-1.112-.83c-.399-1.347-9.627-33.25 3.621-55.493 5.891-9.891 15.361-16.275 28.149-18.978 49.933-10.544 64.97 43.524 65.118 44.07a1.16 1.16 0 01-.822 1.419 1.155 1.155 0 01-1.421-.821c-.034-.133-3.652-13.381-13.166-25.164-12.649-15.666-29.211-21.466-49.229-17.234-12.128 2.564-21.089 8.585-26.635 17.895-12.733 21.379-3.485 53.326-3.389 53.647a1.161 1.161 0 01-1.114 1.489z" fill="#241726"/><path d="M55.975 125.308c-.492 0-.949-.316-1.106-.81-.324-1.024-7.826-25.282 1.631-43.228 4.144-7.866 10.948-13.281 20.221-16.094 31.377-9.514 52.536 35.94 52.747 36.401a1.16 1.16 0 01-2.111.964c-.202-.443-20.543-44.084-49.96-35.145-8.657 2.626-14.994 7.655-18.839 14.947-9.006 17.081-1.554 41.214-1.477 41.455a1.16 1.16 0 01-1.106 1.51z" fill="#241726"/><path d="M67.092 121.678a1.16 1.16 0 01-1.112-.829c-.251-.85-6.101-20.955.936-33.855 2.547-4.673 6.484-7.812 11.702-9.331 9.591-2.794 19.263 1.108 27.954 11.288 6.437 7.54 10.037 15.748 10.189 16.093a1.162 1.162 0 01-2.13.924c-.138-.323-14.274-32.224-35.365-26.078-4.602 1.34-8.073 4.104-10.313 8.214-6.58 12.062-.807 31.885-.748 32.083a1.162 1.162 0 01-1.113 1.491z" fill="#241726"/><path fill="#e7b400" d="M120.056 206.252l13.501-8.524-2.597 14.994 10.419 9.236-11.97 4.18-6.077 13.032-6.47-11.539-15.316-.713 11.087-11.376-5.557-13.335zM409.289 329.988l13.5-8.525-2.596 14.995 10.419 9.236-11.971 4.18-6.076 13.032-6.47-11.539-15.317-.713 11.088-11.376-5.557-13.335z"/><path d="M445.222 201.468a1.163 1.163 0 01-1.157-1.077c-.245-3.428-2.148-33.611 6.135-37.935.924-.483 1.844-.727 2.732-.727 4.432 0 6.904 5.904 7.506 11.933 2.103-.855 4.191-1.316 6.018-1.316 3.104 0 5.415 1.348 6.507 3.795 1.054 2.363 1.038 4.813-.048 7.282-4.491 10.224-26.395 17.673-27.324 17.986-.12.039-.245.059-.369.059zm7.71-37.42c-.51 0-1.069.156-1.658.464-5.574 2.909-5.549 24.367-4.991 34.183 4.921-1.826 21.046-8.322 24.51-16.209.82-1.87.838-3.638.05-5.402-.716-1.606-2.191-2.42-4.386-2.42-1.738 0-3.802.515-5.875 1.461.066 4.092-.766 7.411-2.261 8.972-1.162 1.212-2.766 1.448-4.382.614-1.958-1.007-2.361-2.427-2.354-3.44.016-2.937 3.435-5.814 6.616-7.548-.375-5.367-2.378-10.675-5.269-10.675zm5.319 13.332c-2.56 1.604-4.341 3.563-4.35 4.906 0 .219-.005.798 1.097 1.365.315.161.594.242.836.242.184 0 .467-.042.811-.4.925-.965 1.514-3.267 1.606-6.113zM51.695 257.408c-.179 0-.358-.042-.523-.125-3.068-1.55-29.948-15.412-29.404-24.74.195-3.361 2.479-5.288 6.265-5.288 2.485 0 5.555.811 8.61 2.253.773-4.977 3.358-10.096 8.555-9.474 2.569.309 4.663 1.58 6.224 3.778 6.468 9.103 1.618 31.725 1.407 32.683a1.16 1.16 0 01-1.134.913zm-23.663-27.833c-3.378 0-3.872 1.771-3.949 3.102-.365 6.275 18.062 17.271 26.771 21.833.961-5.161 3.664-22.334-1.325-29.354-1.183-1.665-2.692-2.586-4.608-2.817-3.593-.443-5.587 3.824-6.092 8.316 2.159 1.255 6.584 4.221 6.679 7.463.027.895-.276 2.169-1.865 3.157-1.849 1.146-3.72.954-5.046-.477-1.808-1.95-2.32-5.7-2.193-8.823-2.971-1.51-6.056-2.4-8.372-2.4zm10.678 3.718c.059 2.62.653 4.918 1.588 5.928.408.44.745.491.965.491.333 0 .72-.137 1.155-.408.698-.434.777-.826.768-1.118-.031-1.065-1.453-2.954-4.476-4.893z" fill="#241726"/><path d="M182.032 54.885s-14.598 6.043-10.286 15.091c4.312 9.049 20.55-8.026 13.484-8.364-3.05-.146-1.29 14.968 5.977 14.67s5.41-26.757-9.175-21.397z" fill="#fff"/><path d="M190.995 77.446c-3.879-.001-6.321-3.459-7.506-7.235-2.229 1.901-5.12 3.566-7.798 3.566-2.236 0-3.963-1.142-4.991-3.303-1.092-2.293-1.203-4.61-.329-6.885 2.318-6.032 10.855-9.626 11.217-9.775 1.466-.54 2.846-.805 4.146-.805 6.87 0 10.615 7.379 10.764 14.668.118 5.707-1.989 9.631-5.243 9.765l-.26.004zm-5.607-9.077c.77 3.239 2.637 6.757 5.608 6.757l.165-.003c1.806-.075 3.104-3.255 3.018-7.4-.102-4.982-2.436-12.395-8.444-12.395-1.026 0-2.137.218-3.301.646-.036.016-7.943 3.35-9.899 8.451-.646 1.681-.56 3.333.258 5.051.643 1.351 1.566 1.981 2.898 1.981 1.985 0 4.817-1.519 7.184-3.822-.387-2.329-.385-5.068.698-6.388.421-.513.992-.796 1.613-.796 1.901.088 2.549 1.057 2.775 1.627.827 2.076-1.259 4.833-2.573 6.291zm-.213-5.598c-.052.134-.256.981-.22 2.396.75-1.148.958-1.962.852-2.233-.016-.037-.193-.143-.632-.163z" fill="#241726"/><path d="M180.568 45.6s-11.464-10.872-4.195-17.775 16.309 14.857 9.591 12.64c-2.899-.957 4.159-14.437 10.837-11.554 6.678 2.882-4.537 26.919-16.233 16.689z" fill="#fff"/><path d="M186.527 49.28c-2.331 0-4.593-.944-6.722-2.806-.319-.301-7.003-6.715-7.005-13.178-.002-2.439.931-4.562 2.773-6.312 1.174-1.112 2.472-1.677 3.861-1.677 3.328 0 6.197 3.196 7.986 6.501 2.968-3.745 6.727-5.31 9.842-3.963 2.338 1.009 3.217 3.817 2.415 7.702-1.192 5.757-6.423 13.733-13.15 13.733zm-7.094-21.653c-.786 0-1.525.34-2.261 1.04-1.382 1.312-2.055 2.825-2.053 4.628 0 5.477 6.185 11.405 6.246 11.464 1.661 1.45 3.408 2.201 5.161 2.201 4.962 0 9.715-6.261 10.877-11.881.426-2.062.369-4.485-1.063-5.103-2.723-1.171-5.92 1.476-7.81 4.238.653 1.696 1.547 4.743.396 6.479-.464.705-1.208 1.092-2.091 1.093h-.002a3.95 3.95 0 01-1.235-.219c-.607-.199-1.067-.66-1.294-1.297-.58-1.617.403-4.204 1.615-6.271-1.501-3.25-4.118-6.372-6.486-6.372zm7.543 9.454c-.517 1.302-.591 2.185-.483 2.415.084-.051.245-.033.342-.032.297-.328.386-1.167.141-2.383z" fill="#241726"/><path d="M194.059 54.335s3.893 8.214 11.503 7.29 14.887-5.262 12.968-10.461c-1.918-5.199-8.829-10.889-16.246-8.38s-9.664 9.263-8.225 11.551z" fill="#eab700"/><path d="M199.378 61.415a1.16 1.16 0 01-1.156-1.277c.659-6.55.952-14.339.276-15.503a1.16 1.16 0 112.007-1.165c1.364 2.351.363 13.531.023 16.901a1.158 1.158 0 01-1.15 1.044zM206.214 62.457a1.159 1.159 0 01-1.16-1.241c.467-6.652.668-16.792-.344-18.504a1.159 1.159 0 111.994-1.182c1.754 2.957.861 17.054.666 19.85a1.162 1.162 0 01-1.156 1.077zM165.81 60.873a1.162 1.162 0 01-1.045-1.667c4.624-9.511 14.684-8.253 14.777-8.245.634.086 1.076.668.992 1.303s-.646 1.084-1.303.997c-.338-.046-8.508-1.013-12.377 6.958a1.16 1.16 0 01-1.044.654z" fill="#241726"/><g><path d="M211.959 59.886a1.16 1.16 0 01-1.148-1.331c.662-4.426 1.187-12.23-.211-14.33a1.16 1.16 0 111.931-1.287c2.352 3.53.764 14.699.573 15.961a1.16 1.16 0 01-1.145.987z" fill="#241726"/></g><g><path d="M180.077 50.599c-12.192 0-14.525-9.327-14.546-9.422a1.16 1.16 0 012.256-.536c.077.316 1.992 7.638 12.289 7.638.032 0 .063-.002.095 0a1.16 1.16 0 011.16 1.155c.003.673-.543 1.168-1.254 1.165z" fill="#241726"/></g><g><path d="M388.312 401.593s8.212-13.498-.612-18.253-11.843 18.613-5.941 14.713c2.547-1.683-7.799-12.841-13.488-8.308s11.437 24.787 20.041 11.848z" fill="#fff"/><path d="M381.214 407.01h-.002c-6.552-.001-12.98-6.872-14.702-11.797-.979-2.798-.609-5.063 1.038-6.376 1.106-.881 2.411-1.328 3.877-1.328 2.576 0 5.012 1.371 6.659 2.579 1.047-4.416 3.573-8.55 7.307-8.55.938 0 1.901.262 2.862.781 2.236 1.204 3.693 3.009 4.332 5.362 1.692 6.236-3.077 14.179-3.281 14.514-2.104 3.164-4.893 4.815-8.09 4.815zm-9.79-17.181c-.943 0-1.736.268-2.431.822-1.101.878-.657 2.755-.292 3.795 1.656 4.736 7.481 10.242 12.511 10.243h.002c2.42 0 4.482-1.257 6.133-3.739.018-.034 4.429-7.394 2.995-12.665-.471-1.738-1.516-3.02-3.192-3.924-.619-.333-1.212-.502-1.76-.502-2.612 0-4.62 3.99-5.288 7.941 1.713 1.677 3.34 3.916 3.206 5.629-.054.674-.376 1.239-.911 1.591-1.4.927-2.798.804-3.702-.231-1.298-1.486-1.226-4.417-1.054-6.097-2.109-1.801-4.402-2.863-6.217-2.863zm8.46 5.196c.057 1.121.276 1.916.557 2.237.199.07.396.007.677-.177-.038-.139-.371-.942-1.234-2.06z" fill="#241726"/><path d="M394.977 408.221s15.672 2.004 13.883 11.866-21.935-2.357-15.205-4.536c2.905-.94 5.17 14.107-1.922 15.724-7.09 1.619-12.236-24.402 3.244-23.054z" fill="#fff"/><path d="M391.097 432.509c-4.348 0-7.379-7.072-7.379-13.42 0-2.288.387-5.57 2.232-8.21 1.978-2.829 5.084-4.169 9.128-3.814.437.054 9.618 1.284 13.435 6.497 1.441 1.968 1.942 4.232 1.489 6.732-.548 3.017-2.728 4.748-5.984 4.749-1.901 0-4.205-.6-6.425-1.648-.156 4.066-1.672 8.116-5.601 9.012a3.99 3.99 0 01-.895.102zm2.746-23.179c-2.642 0-4.658.969-5.993 2.879-1.498 2.146-1.813 4.926-1.813 6.881 0 6.305 2.997 11.61 5.438 11.056 2.991-.683 3.911-4.625 3.8-8.032-1.652-1.063-4.386-3.176-4.135-5.398.07-.608.442-1.713 2.157-2.268.204-.066.41-.099.619-.099 2.191 0 3.283 3.316 3.593 6.397 2.238 1.244 4.636 1.977 6.509 1.977 2.855-.001 3.48-1.623 3.7-2.843.34-1.874-.011-3.49-1.074-4.944-3.224-4.409-11.729-5.554-11.813-5.564a12.076 12.076 0 00-.988-.042zm-.043 7.317c-.208.144-.351.292-.353.331-.034.288.378 1.016 1.393 1.921-.351-1.368-.816-2.131-1.04-2.252z" fill="#241726"/><path d="M378.931 409.14s-7.993-4.329-13.588.91c-5.595 5.24-8.906 13.038-4.287 16.101 4.619 3.063 13.556 3.573 18.059-2.832s2.329-13.183-.184-14.179z" fill="#eab700"/><path d="M371.146 407.502s7.126 12.125 9.465 13.15" fill="#fff"/><path d="M380.611 421.812c-.156 0-.313-.031-.464-.097-2.492-1.09-8.286-10.704-10.001-13.625a1.16 1.16 0 111.998-1.176c3.337 5.677 7.699 12.136 8.931 12.675a1.16 1.16 0 01-.464 2.223z" fill="#241726"/><path d="M365.013 410.698s8.746 13.899 11.733 15.176" fill="#fff"/><path d="M376.746 427.035c-.152 0-.308-.029-.455-.094-3.161-1.351-10.766-13.253-12.257-15.625a1.16 1.16 0 01.362-1.6 1.164 1.164 0 011.6.365c3.553 5.644 9.378 13.944 11.206 14.728.589.251.863.933.612 1.523a1.163 1.163 0 01-1.068.703z" fill="#241726"/><g><path d="M392.086 402.268s8.226-4.459 6.466-14.152" fill="#fff"/><path d="M392.087 403.428a1.162 1.162 0 01-.558-2.179c.306-.168 7.463-4.207 5.879-12.927a1.162 1.162 0 01.936-1.349c.596-.108 1.233.301 1.348.935 1.887 10.401-6.965 15.331-7.055 15.379a1.137 1.137 0 01-.55.141z" fill="#241726"/></g><g><path d="M361.894 416.166s5.584 10.642 9.261 11.99" fill="#fff"/><path d="M371.155 429.315c-.134 0-.267-.023-.399-.07-3.983-1.459-9.296-11.41-9.887-12.539a1.16 1.16 0 112.053-1.079c2.08 3.962 6.262 10.57 8.632 11.438a1.16 1.16 0 01-.399 2.25z" fill="#241726"/></g><g><path d="M408.969 403.789s-6.689-5.729-15.939 1.099" fill="#fff"/><path d="M393.03 406.048a1.158 1.158 0 01-.688-2.093c9.881-7.291 17.312-1.108 17.382-1.047a1.16 1.16 0 01-1.504 1.766c-.247-.208-6.156-5.011-14.5 1.148a1.16 1.16 0 01-.69.226z" fill="#241726"/></g></g><g><path d="M403.572 298.692c-1.473 0-3.514-.16-4.214-1.541-2.132-4.191-1.067-28.424-.938-31.173a1.157 1.157 0 011.742-.947l12.246 7.16c3.124-3.282 17.063-19.514 8.761-40.124a1.163 1.163 0 01.836-1.569l18.821-3.976a1.14 1.14 0 011.237.544c.181.306 17.498 30.438-14.616 54.748l10.821 7.11a1.16 1.16 0 01-.297 2.079c-1.026.312-25.226 7.689-34.399 7.689zm-2.148-2.599c.032 0 .489.279 2.148.279 7.198 0 24.907-4.994 31.339-6.88l-10.128-6.654a1.163 1.163 0 01-.523-.945 1.155 1.155 0 01.483-.966c29.406-21.201 18.066-47.304 15.712-51.955l-16.639 3.515c8.693 23.868-10.232 41.827-10.427 42.008-.378.35-.938.408-1.375.152l-11.36-6.642c-.412 10.249-.537 25.501.768 28.091 0-.002.002-.003.002-.003z" fill="#241726"/></g><g><path d="M49.674 330.706a1.16 1.16 0 01-1.092-.768c-.12-.334-11.414-33.202 24.725-50.987l-9.28-9.031a1.16 1.16 0 01.686-1.985c.15-.016 15.289-1.621 26.352-1.621 10.456 0 12.296 1.393 12.729 2.898 1.298 4.519-4.339 28.111-4.984 30.787-.095.394-.392.71-.777.833s-.811.036-1.115-.233l-10.667-9.349c-3.691 2.629-20.452 15.927-16.204 37.736.063.336-.023.685-.238.952a1.155 1.155 0 01-.881.43l-19.233.339-.021-.001zm17.758-60.709l8.684 8.452a1.16 1.16 0 01-.322 1.884c-32.891 15.247-26.701 43.024-25.271 48.038l17.004-.3c-4.015-25.082 17.971-39.129 18.198-39.271a1.16 1.16 0 011.378.112l9.896 8.673c2.347-9.989 5.363-24.954 4.565-27.732-.07-.066-1.205-1.219-10.499-1.219-8.278 0-18.895.912-23.633 1.363z" fill="#241726"/></g><g><path d="M410.314 123.87a1.16 1.16 0 01-.093-2.317 11.087 11.087 0 004.013-1.114 1.16 1.16 0 011.024 2.082 13.46 13.46 0 01-4.846 1.345 1.07 1.07 0 01-.098.004zm-4.594-.415c-.093 0-.186-.011-.281-.034-1.477-.368-3.013-.952-4.57-1.737a1.16 1.16 0 011.047-2.071c1.4.707 2.773 1.23 4.085 1.555a1.161 1.161 0 01-.281 2.287zm12.787-3.491a1.16 1.16 0 01-.802-1.998c.981-.937 1.93-2.071 2.823-3.372a1.16 1.16 0 111.912 1.314c-.983 1.432-2.037 2.689-3.131 3.735a1.155 1.155 0 01-.802.321zm-21.077-.56c-.231 0-.462-.068-.666-.21l-.213-.152c-1.348-.963-2.522-1.982-3.487-3.029a1.161 1.161 0 011.708-1.572c.856.93 1.908 1.843 3.129 2.715l.195.137a1.16 1.16 0 01.283 1.615 1.152 1.152 0 01-.949.496zm-6.054-6.869c-.451 0-.881-.265-1.067-.707a12.967 12.967 0 01-1.015-4.956 1.16 1.16 0 011.149-1.172c.616-.065 1.165.506 1.171 1.148.016 1.461.285 2.794.829 4.075a1.16 1.16 0 01-1.067 1.612zm32.435-.139a1.16 1.16 0 01-1.04-1.674 43.48 43.48 0 001.785-4.159 1.16 1.16 0 012.175.807 46.017 46.017 0 01-1.881 4.381 1.158 1.158 0 01-1.039.645zm3.276-8.692a1.162 1.162 0 01-1.117-1.474c.675-2.4.988-4.107 1.044-4.425a1.169 1.169 0 011.344-.94 1.16 1.16 0 01.94 1.344c-.059.336-.39 2.143-1.094 4.649a1.16 1.16 0 01-1.117.846zm-35.99-.26a1.16 1.16 0 01-1.119-1.463c.376-1.391.909-2.871 1.629-4.522a1.166 1.166 0 011.527-.6c.587.256.854.94.598 1.527-.673 1.546-1.169 2.92-1.516 4.201a1.158 1.158 0 01-1.119.857zm3.596-8.538a1.16 1.16 0 01-1.029-1.697c.705-1.348 1.457-2.718 2.218-4.105a1.161 1.161 0 012.035 1.117c-.757 1.374-1.5 2.728-2.195 4.062a1.163 1.163 0 01-1.029.623zm4.42-8.166a1.159 1.159 0 01-1.024-1.704 87.529 87.529 0 002.053-4.099c.27-.582.961-.833 1.541-.561.582.271.834.961.562 1.542a93.702 93.702 0 01-2.107 4.205 1.16 1.16 0 01-1.025.617zm3.865-8.431a1.16 1.16 0 01-1.089-1.557 33.73 33.73 0 001.267-4.298 1.16 1.16 0 112.266.496 36.142 36.142 0 01-1.353 4.597 1.164 1.164 0 01-1.091.762zm1.915-9.037l-.045-.001a1.16 1.16 0 01-1.115-1.204 20.426 20.426 0 00-.29-4.375 1.16 1.16 0 01.94-1.344 1.165 1.165 0 011.344.94c.227 1.286.342 2.616.342 3.952 0 .306-.005.612-.016.916a1.163 1.163 0 01-1.16 1.116zm-48.819-.357a1.16 1.16 0 01-.372-2.258c1.004-.339 2.069-1.182 3.086-2.438a1.16 1.16 0 011.803 1.459c-1.294 1.598-2.728 2.697-4.146 3.176a1.14 1.14 0 01-.371.061zm-4.198-1.171c-.315 0-.63-.128-.859-.381-1.126-1.239-1.751-2.919-1.86-4.991a1.16 1.16 0 112.316-.122c.082 1.525.505 2.721 1.262 3.555a1.16 1.16 0 01-.859 1.939zm10.211-5.595a1.162 1.162 0 01-1.053-1.646 25.075 25.075 0 001.479-4.177 1.158 1.158 0 011.414-.83c.621.161.992.795.829 1.415a27.328 27.328 0 01-1.615 4.564 1.162 1.162 0 01-1.054.674zm41.206-1.944c-.455 0-.888-.271-1.074-.719a24.2 24.2 0 00-2.057-3.912 1.158 1.158 0 111.948-1.257 26.498 26.498 0 012.257 4.288 1.162 1.162 0 01-1.074 1.6zm-52.418-1.321a1.159 1.159 0 01-1.119-1.462c.403-1.496.99-3.025 1.749-4.543a1.165 1.165 0 011.557-.519c.573.287.804.983.519 1.557a22.273 22.273 0 00-1.586 4.108 1.16 1.16 0 01-1.12.859zm13.571-5.671a1.16 1.16 0 01-1.156-1.277 28.38 28.38 0 00.095-4.453 1.158 1.158 0 011.092-1.222c.714-.028 1.189.454 1.223 1.093a30.327 30.327 0 01-.104 4.816 1.156 1.156 0 01-1.15 1.043zm-64.656-.461h-.009a4.574 4.574 0 01-3.059-1.151 1.162 1.162 0 01-.106-1.637 1.162 1.162 0 011.638-.105c.44.385.94.573 1.529.573h.005c.535 0 .979-.125 1.357-.38a1.164 1.164 0 011.609.313c.36.531.22 1.252-.313 1.611-.761.514-1.654.776-2.651.776zm98.546-.338a1.17 1.17 0 01-.875-.396 38.869 38.869 0 00-2.581-2.676l-.582-.543a1.161 1.161 0 011.572-1.708l.603.564c.99.936 1.91 1.89 2.737 2.835a1.16 1.16 0 01-.874 1.924zm-43.388-1.821a1.16 1.16 0 01-.941-1.84 30.32 30.32 0 013.127-3.673 1.16 1.16 0 111.64 1.64 27.913 27.913 0 00-2.886 3.392 1.158 1.158 0 01-.94.481zm-51.179-2.461a1.161 1.161 0 01-1.156-1.292c.048-.415.073-.854.073-1.315 0-.913-.093-1.914-.276-2.976a1.16 1.16 0 01.947-1.34 1.157 1.157 0 011.341.946c.204 1.192.308 2.326.308 3.37 0 .554-.029 1.082-.086 1.578a1.161 1.161 0 01-1.151 1.029zm-8.211-.366a1.159 1.159 0 01-1.142-.972 16.302 16.302 0 01-.204-2.646c0-.734.043-1.503.129-2.295.07-.638.686-1.089 1.278-1.027a1.16 1.16 0 011.029 1.279 18.89 18.89 0 00-.116 2.044c0 .809.059 1.572.172 2.27a1.159 1.159 0 01-1.146 1.347zm95.972-1.639a1.15 1.15 0 01-.7-.236 37.553 37.553 0 00-3.736-2.501 1.16 1.16 0 011.169-2.005 40.084 40.084 0 013.967 2.658 1.158 1.158 0 01-.7 2.084zm-30.043-2.065a1.16 1.16 0 01-.671-2.106c.464-.331.94-.646 1.421-.944a25.345 25.345 0 00-.773-2.177 1.16 1.16 0 012.152-.87c.251.622.483 1.255.689 1.895.233-.116.469-.228.702-.336a1.159 1.159 0 011.538.571 1.159 1.159 0 01-.569 1.538c-.347.159-.691.327-1.033.505.034.146.068.292.1.438a1.159 1.159 0 01-.884 1.381 1.156 1.156 0 01-1.282-.603c-.242.16-.483.324-.72.493a1.141 1.141 0 01-.67.215zm-126.665-.59a1.16 1.16 0 01-1.16-1.16c0-.079.005-1.972.455-4.826a1.16 1.16 0 012.293.363c-.421 2.658-.428 4.446-.428 4.465a1.16 1.16 0 01-1.16 1.158zm148.694-1.966c-.143 0-.288-.026-.43-.083a24.64 24.64 0 00-4.235-1.274 1.161 1.161 0 01-.909-1.367 1.164 1.164 0 011.366-.907c1.536.31 3.095.779 4.638 1.395.594.237.884.912.648 1.507a1.162 1.162 0 01-1.078.729zm-13.642-1.26a1.16 1.16 0 01-.256-2.292 22.68 22.68 0 014.846-.557h.007a1.16 1.16 0 01.007 2.32c-1.457.009-2.92.178-4.348.501a1.187 1.187 0 01-.256.028zm-67.496-1.221c-.48 0-.931-.301-1.097-.782a35.423 35.423 0 00-1.742-4.142 1.16 1.16 0 112.08-1.028 38.051 38.051 0 011.856 4.414 1.162 1.162 0 01-1.097 1.538zm-5.954-.428a1.159 1.159 0 01-1.112-1.492 30.733 30.733 0 011.747-4.495 1.159 1.159 0 112.088 1.009 28.142 28.142 0 00-1.611 4.151 1.163 1.163 0 01-1.112.827zm64.018-3.169a1.16 1.16 0 01-.988-.551 27.108 27.108 0 00-2.637-3.573 1.159 1.159 0 01.113-1.637 1.158 1.158 0 011.636.112 29.462 29.462 0 012.864 3.879 1.16 1.16 0 01-.988 1.77zm-124.199-1.145a1.16 1.16 0 01-1.119-1.467c.43-1.563.952-3.087 1.55-4.531a1.164 1.164 0 011.516-.628c.591.246.872.924.628 1.516a36.229 36.229 0 00-1.455 4.257c-.144.516-.61.853-1.12.853zm62.043-3.572c-.381 0-.754-.188-.977-.532a40.848 40.848 0 00-2.646-3.651 1.157 1.157 0 01.168-1.631 1.158 1.158 0 011.631.168 42.843 42.843 0 012.8 3.86c.007.01.011.02.018.032.023-.178.088-.352.197-.51a29.571 29.571 0 013.054-3.733 1.159 1.159 0 111.667 1.611 27.837 27.837 0 00-2.814 3.44 1.16 1.16 0 01-1.948-.063 1.158 1.158 0 01-1.15 1.009zm56.103-2.259a1.16 1.16 0 01-.75-.275 34.164 34.164 0 00-3.605-2.661 1.16 1.16 0 111.255-1.951 36.084 36.084 0 013.849 2.842 1.161 1.161 0 01-.749 2.045zm-114.575-2.716a1.159 1.159 0 01-.997-1.751 29.416 29.416 0 012.785-3.938 1.16 1.16 0 111.776 1.493 27.412 27.412 0 00-2.567 3.627 1.157 1.157 0 01-.997.569zm67.039-2.111a1.16 1.16 0 01-.688-2.094 28.54 28.54 0 014.121-2.519 1.164 1.164 0 011.557.519c.285.573.054 1.27-.519 1.557a25.94 25.94 0 00-3.781 2.313c-.21.151-.45.224-.69.224zm-14.415-.098c-.295 0-.587-.111-.813-.333a38.162 38.162 0 00-3.387-2.963 1.16 1.16 0 011.423-1.833 41.09 41.09 0 013.591 3.142 1.16 1.16 0 01-.814 1.987zm54.186-.102c-.172 0-.347-.039-.512-.119a47.1 47.1 0 00-4.153-1.796 1.16 1.16 0 01.82-2.17 49.422 49.422 0 014.357 1.884 1.159 1.159 0 01-.512 2.201zm-8.657-3.294c-.107 0-.213-.015-.322-.045a55.522 55.522 0 00-4.414-1.082 1.16 1.16 0 01-.909-1.366 1.167 1.167 0 011.366-.909c1.504.302 3.052.682 4.599 1.127a1.161 1.161 0 01-.32 2.275zm-22.861-.638a1.16 1.16 0 01-.342-2.269 31.742 31.742 0 014.69-1.054 1.155 1.155 0 011.319.979 1.161 1.161 0 01-.979 1.316c-1.495.22-2.957.548-4.346.977a1.162 1.162 0 01-.342.051zm-69.329-.802a1.16 1.16 0 01-.739-2.055 26.49 26.49 0 014.003-2.722 1.16 1.16 0 011.124 2.03 24.156 24.156 0 00-3.65 2.482 1.16 1.16 0 01-.738.265zm83.1-.363c-.041 0-.079-.002-.12-.006a39.585 39.585 0 00-4.019-.21l-.478.003c-.607-.014-1.167-.504-1.176-1.144s.503-1.167 1.144-1.176l.51-.003c1.389 0 2.821.075 4.255.221a1.16 1.16 0 01-.116 2.315zm-43.752-.474c-.204 0-.41-.053-.596-.165a36.1 36.1 0 00-3.99-2.065 1.16 1.16 0 01.938-2.123 38.468 38.468 0 014.244 2.199 1.158 1.158 0 01-.596 2.154zm-31.294-3.636a1.16 1.16 0 01-.377-2.257c1.47-.506 3.034-.91 4.647-1.202a1.167 1.167 0 011.348.936 1.162 1.162 0 01-.936 1.348 29.738 29.738 0 00-4.307 1.111c-.123.044-.25.064-.375.064zm22.831-.099c-.109 0-.222-.016-.333-.049a37.562 37.562 0 00-4.375-1.024 1.16 1.16 0 01-.949-1.339 1.167 1.167 0 011.339-.947c1.57.268 3.136.634 4.651 1.088a1.159 1.159 0 01-.333 2.271zm-9.182-1.57c-1.971-.093-3.156-.079-4.515-.009-.72.024-1.183-.462-1.217-1.1a1.158 1.158 0 011.099-1.218 45.81 45.81 0 014.511-.002l.186 1.171-.064 1.158z" fill="#241726"/></g><g><path d="M191.473 495.256l-.066-.002a31.125 31.125 0 01-4.769-.637 1.16 1.16 0 01-.893-1.376 1.17 1.17 0 011.378-.892c1.432.306 2.916.504 4.416.589a1.16 1.16 0 01-.066 2.318zm4.633-.075a1.159 1.159 0 01-1.153-1.063 1.159 1.159 0 011.058-1.253 35.937 35.937 0 004.441-.666 1.158 1.158 0 11.485 2.268c-1.588.34-3.179.579-4.731.709a.837.837 0 01-.1.005zm-13.657-1.878c-.143 0-.288-.026-.426-.082a28.335 28.335 0 01-4.325-2.152 1.16 1.16 0 011.206-1.982 26.206 26.206 0 003.972 1.978c.596.236.888.91.653 1.506a1.164 1.164 0 01-1.08.732zm22.718-.031a1.16 1.16 0 01-.365-2.261 47.325 47.325 0 003.281-1.227l.956-.406a1.164 1.164 0 011.525.608 1.162 1.162 0 01-.609 1.524l-.979.415a49.465 49.465 0 01-3.444 1.288c-.12.04-.245.059-.365.059zm8.539-3.61a1.161 1.161 0 01-.512-2.201 77.405 77.405 0 004.04-2.139 1.157 1.157 0 011.581.437 1.159 1.159 0 01-.435 1.581 82.913 82.913 0 01-4.162 2.202c-.163.081-.34.12-.512.12zm-39.137-1.171c-.272 0-.546-.095-.766-.288a27.89 27.89 0 01-3.342-3.494 1.16 1.16 0 111.808-1.452 25.565 25.565 0 003.065 3.201 1.162 1.162 0 01-.765 2.033zm86.986-2.325a1.16 1.16 0 01-.005-2.32 36.388 36.388 0 004.486-.305c.625-.07 1.217.367 1.298 1.003s-.367 1.217-1.004 1.299c-1.62.208-3.226.317-4.772.323h-.003zm-4.62-.302c-.054 0-.109-.003-.163-.011a29.835 29.835 0 01-4.701-1.04 1.158 1.158 0 01-.766-1.45 1.151 1.151 0 011.45-.766 27.72 27.72 0 004.339.958 1.16 1.16 0 01-.159 2.309zm-35.165-.785a1.16 1.16 0 01-.635-2.131 67.141 67.141 0 003.727-2.623 1.162 1.162 0 011.624.225 1.163 1.163 0 01-.224 1.626 71.128 71.128 0 01-3.858 2.713c-.195.129-.414.19-.634.19zm48.974-.065a1.16 1.16 0 01-.267-2.289 48.401 48.401 0 002.683-.717c.573-.17 1.137-.346 1.69-.525a1.16 1.16 0 01.716 2.206c-.571.186-1.153.366-1.745.542-.954.283-1.89.532-2.809.75a1.13 1.13 0 01-.268.033zm-22.625-1.88a1.15 1.15 0 01-.523-.125 28.683 28.683 0 01-4.11-2.534 1.16 1.16 0 011.382-1.864 26.077 26.077 0 003.775 2.328 1.161 1.161 0 01-.524 2.195zm31.446-.975a1.16 1.16 0 01-.437-2.234 54.484 54.484 0 004.13-1.884 1.164 1.164 0 011.559.509 1.159 1.159 0 01-.508 1.56 56.22 56.22 0 01-4.307 1.963 1.145 1.145 0 01-.437.086zm-110.78-.866c-.408 0-.804-.216-1.017-.6a27.242 27.242 0 01-1.948-4.432 1.16 1.16 0 012.198-.741 24.816 24.816 0 001.785 4.053 1.16 1.16 0 01-1.018 1.72zm60.371-1.816a1.16 1.16 0 01-.768-2.029 54.878 54.878 0 003.274-3.145c.442-.46 1.18-.48 1.64-.036.462.443.478 1.177.036 1.64a57.076 57.076 0 01-3.414 3.278 1.15 1.15 0 01-.768.292zm58.658-1.535a1.159 1.159 0 01-.623-2.139 41.72 41.72 0 003.673-2.619 1.163 1.163 0 011.631.18 1.16 1.16 0 01-.181 1.63 43.717 43.717 0 01-3.877 2.766c-.192.124-.41.182-.623.182zm-47.126-.284c-.301 0-.603-.117-.829-.349a32.945 32.945 0 01-3.095-3.674 1.16 1.16 0 111.876-1.364 30.936 30.936 0 002.877 3.415 1.159 1.159 0 01-.829 1.972zm85.022-4.019l-.587-.005a1.16 1.16 0 01-1.14-1.18c.011-.641.646-1.128 1.18-1.14l.546.005c1.099 0 2.223-.06 3.34-.178l.587-.068a1.17 1.17 0 011.289 1.015 1.159 1.159 0 01-1.013 1.289l-.612.07c-1.205.127-2.41.192-3.59.192zm-5.177-.427c-.066 0-.129-.006-.195-.016a32.181 32.181 0 01-4.665-1.149c-.609-.198-.943-.853-.743-1.462s.852-.945 1.464-.742c1.414.462 2.871.82 4.33 1.065a1.161 1.161 0 01-.191 2.304zm-84.983-.442a1.16 1.16 0 01-.911-1.878c.186-.234.367-.471.546-.709a1.162 1.162 0 01-.972-.609 38.297 38.297 0 01-1.994-4.352 1.162 1.162 0 01.668-1.499 1.163 1.163 0 011.498.667 35.66 35.66 0 001.871 4.085c.025.045.045.091.063.137.319-.468.63-.937.922-1.405a1.163 1.163 0 011.6-.366c.544.34.707 1.056.367 1.598a45.037 45.037 0 01-2.748 3.889c-.228.29-.568.442-.91.442zm-69.697-.229c-.569 0-1.067-.42-1.146-1.001a24.362 24.362 0 01-.179-4.864c.043-.641.655-1.095 1.233-1.082a1.162 1.162 0 011.083 1.234c-.029.461-.045.924-.045 1.389 0 .999.07 2.011.206 3.005a1.16 1.16 0 01-1.152 1.319zm168.469-.028a1.16 1.16 0 01-.303-2.279 22.38 22.38 0 004.117-1.546 1.16 1.16 0 111.038 2.075 24.638 24.638 0 01-4.547 1.709 1.17 1.17 0 01-.305.041zm-39.303-.38a1.161 1.161 0 01-.834-1.967 30.576 30.576 0 002.871-3.419 1.159 1.159 0 011.62-.264 1.16 1.16 0 01.265 1.619 33.018 33.018 0 01-3.088 3.679c-.229.234-.53.352-.834.352zm16.723-1.786a1.15 1.15 0 01-.514-.121 35.28 35.28 0 01-4.139-2.421 1.16 1.16 0 011.305-1.919 32.988 32.988 0 003.863 2.262 1.16 1.16 0 01-.515 2.199zm30.763-2.017a1.158 1.158 0 01-.762-2.035 15.582 15.582 0 002.819-3.247 1.16 1.16 0 111.944 1.264 17.84 17.84 0 01-3.24 3.732 1.151 1.151 0 01-.761.286zm-38.428-3.167a1.16 1.16 0 01-.768-.29 40.587 40.587 0 01-1.597-1.49 24.16 24.16 0 01-.281.587 1.159 1.159 0 11-2.08-1.026c.224-.455.433-.914.625-1.375l-.054-.061a1.159 1.159 0 01.78-1.93c.079-.251.152-.503.22-.753.17-.616.798-.989 1.423-.816.619.168.983.804.816 1.423a23.189 23.189 0 01-.501 1.614 39.024 39.024 0 002.186 2.088 1.16 1.16 0 01-.769 2.029zm-63.638-.254a1.162 1.162 0 01-1.054-1.647 28.22 28.22 0 001.554-4.172 1.16 1.16 0 112.234.63c-.417 1.481-.983 3-1.681 4.514a1.158 1.158 0 01-1.053.675zm-73.956-1.557a1.161 1.161 0 01-1.115-1.485 21.705 21.705 0 011.89-4.511 1.161 1.161 0 012.025 1.133 19.272 19.272 0 00-1.686 4.028 1.162 1.162 0 01-1.114.835zm65.435-1.815c-.523 0-.999-.356-1.126-.886a34.028 34.028 0 01-.813-4.733 1.163 1.163 0 011.042-1.268c.634-.043 1.208.403 1.269 1.041.14 1.443.394 2.927.757 4.411a1.16 1.16 0 01-1.129 1.435zm115.61-.87a1.161 1.161 0 01-1.099-1.53 22.26 22.26 0 00.961-4.295 1.171 1.171 0 011.296-1.006 1.16 1.16 0 011.006 1.296 24.585 24.585 0 01-1.065 4.745 1.16 1.16 0 01-1.099.79zm-49.627-2.41c-.365 0-.725-.172-.949-.494a37.676 37.676 0 01-2.499-4.087 1.16 1.16 0 112.053-1.079 35.4 35.4 0 002.345 3.834 1.162 1.162 0 01-.95 1.826zm-55.036-2.251l-.077-.002a1.16 1.16 0 01-1.081-1.235c.023-.351.034-.697.034-1.035-.002-1.153-.131-2.229-.387-3.196a1.16 1.16 0 112.243-.591c.306 1.158.462 2.431.464 3.785 0 .391-.011.788-.039 1.191a1.158 1.158 0 01-1.157 1.083zm59.882-.293l-.039-.001a1.16 1.16 0 01-1.122-1.196l.011-.59c0-1.293-.152-2.531-.451-3.681a1.161 1.161 0 01.831-1.414 1.152 1.152 0 011.416.831c.347 1.339.523 2.774.523 4.263l-.011.665a1.158 1.158 0 01-1.158 1.123zm-131.769-.388a1.162 1.162 0 01-.861-1.938 23.85 23.85 0 013.623-3.251 1.159 1.159 0 111.369 1.871 21.65 21.65 0 00-3.269 2.936c-.23.253-.545.382-.862.382zm60.14-2.996a1.159 1.159 0 01-1.155-1.278c.199-1.962.666-3.607 1.382-4.888a1.161 1.161 0 012.025 1.133c-.555.989-.936 2.37-1.101 3.991a1.16 1.16 0 01-1.151 1.042zm117.643-.813a1.16 1.16 0 01-1.16-1.134 38.895 38.895 0 00-.374-4.488 1.16 1.16 0 01.988-1.31c.619-.099 1.219.351 1.31.988.229 1.629.362 3.23.396 4.758a1.162 1.162 0 01-1.133 1.186h-.027zm-55.088-1.491c-.494 0-.952-.317-1.108-.813-.462-1.479-.696-2.799-.693-3.921 0-.437.036-.843.106-1.208a1.163 1.163 0 011.355-.924c.63.119 1.044.725.924 1.355a4.353 4.353 0 00-.066.779c-.002.876.202 1.989.589 3.225a1.16 1.16 0 01-1.107 1.507zm-53.434-2.617c-.288 0-.575-.106-.8-.319-.868-.827-1.951-1.325-3.215-1.484-.639-.037-1.235-.595-1.199-1.235.039-.641.485-1.129 1.117-1.1l.358.032c1.779.222 3.301.93 4.538 2.106a1.16 1.16 0 01-.799 2zm60.07-.464a1.16 1.16 0 01-.927-.461c-.852-1.129-1.903-1.97-3.12-2.497a1.161 1.161 0 01.92-2.13c1.59.689 2.954 1.775 4.051 3.229a1.161 1.161 0 01-.924 1.859zm47.192-4.61a1.16 1.16 0 01-1.128-.889c-.625-2.598-1.267-4.296-1.271-4.312a1.16 1.16 0 012.166-.827c.029.074.698 1.842 1.362 4.597a1.16 1.16 0 01-1.129 1.431z" fill="#241726"/></g><g><path d="M277.356 81.463c-66.629 0-120.642 54.013-120.642 120.642 0 24.869 7.531 47.976 20.428 67.178L65.129 383.239l28.103 27.674 22.892-23.29 15.069 15.07-23.582 25.621s31.129 31.706 33.435 31.706c4.891 0 24.212-23.635 24.212-23.635l-12.106-10.953 22.895-22.739 15.467 13.92s31.996-27 27.356-30.094c-4.64-3.094-24.262-28.681-30.449-25.588s-23.2 21.654-23.2 21.654l-22.961-21.552 61.942-63.018c20.296 15.504 45.643 24.732 73.155 24.732 66.629 0 120.643-54.013 120.643-120.642S343.985 81.463 277.356 81.463zm0 200.49c-44.099 0-79.848-35.749-79.848-79.848s35.749-79.848 79.848-79.848 79.848 35.749 79.848 79.848c.001 44.099-35.749 79.848-79.848 79.848z" fill="#e7b400"/><path d="M175.19 153.706c-.02 0-.041 0-.063-.002a1.158 1.158 0 01-1.094-1.221c.279-5.108 5.068-8.315 5.272-8.449a1.16 1.16 0 011.275 1.936c-.039.027-4.017 2.713-4.232 6.64a1.16 1.16 0 01-1.158 1.096zM186.872 151.051c-.02 0-.041 0-.063-.002a1.158 1.158 0 01-1.094-1.221c.279-5.108 5.066-8.315 5.268-8.449a1.16 1.16 0 011.277 1.936c-.039.027-4.015 2.713-4.23 6.64a1.161 1.161 0 01-1.158 1.096zM173.744 182.611a1.164 1.164 0 01-1.131-.896c-1.162-4.981 2.531-9.404 2.689-9.589a1.16 1.16 0 011.769 1.5c-.032.037-3.095 3.732-2.198 7.562a1.16 1.16 0 01-1.129 1.423zM185.111 140.462c-.02 0-.041 0-.063-.002a1.158 1.158 0 01-1.094-1.221c.279-5.108 5.068-8.316 5.27-8.45a1.16 1.16 0 011.277 1.936c-.039.027-4.017 2.714-4.232 6.641a1.16 1.16 0 01-1.158 1.096zM179.214 165.722c-.02 0-.041 0-.063-.002a1.158 1.158 0 01-1.094-1.221c.279-5.108 5.068-8.316 5.27-8.45a1.159 1.159 0 011.277 1.936c-.039.027-4.017 2.714-4.232 6.641a1.162 1.162 0 01-1.158 1.096zM169.566 169.609a1.158 1.158 0 01-1.153-1.068c-.408-5.098 3.908-8.919 4.092-9.079a1.16 1.16 0 011.525 1.748c-.036.032-3.618 3.226-3.306 7.147a1.158 1.158 0 01-1.158 1.252z" fill="#241726"/><path d="M371.705 157.928c-.48 0-.931-.301-1.097-.782-14.326-41.473-62.949-57.119-63.439-57.273a1.16 1.16 0 11.694-2.213c.501.156 50.225 16.134 64.939 58.73a1.162 1.162 0 01-1.097 1.538z" fill="#fbfcff"/><g><path d="M384.08 188.088a1.16 1.16 0 01-1.153-1.304c.725-5.791-3.723-15.513-3.768-15.61a1.163 1.163 0 01.566-1.54 1.163 1.163 0 011.541.568c.195.423 4.769 10.429 3.963 16.87a1.16 1.16 0 01-1.149 1.016z" fill="#fbfcff"/></g><g><path d="M109.54 355.132a1.16 1.16 0 01-.827-1.973l45.628-46.401a1.16 1.16 0 111.654 1.626l-45.628 46.401a1.158 1.158 0 01-.827.347z" fill="#241726"/></g><g><path d="M95.619 370.598a1.161 1.161 0 01-.854-1.944l8.508-9.28a1.162 1.162 0 011.638-.071c.471.433.503 1.167.07 1.639l-8.508 9.28a1.156 1.156 0 01-.854.376z" fill="#241726"/></g><g><path d="M285.764 311.836c-.489 0-.972-.003-1.466-.011a1.161 1.161 0 01-1.142-1.178c.011-.641.582-1.074 1.178-1.142.48.008.958.011 1.432.011 46.673 0 73.131-36.276 73.394-36.646a1.162 1.162 0 011.89 1.348c-.272.38-27.438 37.618-75.286 37.618z" fill="#241726"/></g><g><path d="M266.902 311.298c-7.785 0-17.446-4.779-17.906-5.009a1.162 1.162 0 01-.519-1.557 1.165 1.165 0 011.557-.519c.12.06 12.085 5.986 19.362 4.54.6-.133 1.237.279 1.364.91a1.158 1.158 0 01-.911 1.365c-.933.187-1.925.27-2.947.27z" fill="#241726"/></g></g><g><path d="M425.916 155.186h-.007l-3.937.035 4.161-2.901a1.16 1.16 0 10-1.327-1.903l-6.356 4.432.044-7.495a1.16 1.16 0 00-1.153-1.167h-.007a1.16 1.16 0 00-1.16 1.153l-.039 6.614-3.978-4.203a1.162 1.162 0 00-1.64-.045 1.162 1.162 0 00-.045 1.64l3.733 3.945-7.073.063c-.641.006-1.156.497-1.149 1.098.007.597.523 1.077 1.16 1.077h.011l7.548-.067-6.018 4.196a1.16 1.16 0 101.328 1.903l6.092-4.247-.045 7.55a1.16 1.16 0 001.153 1.167h.007a1.16 1.16 0 001.16-1.153l.042-7.131 4.24 4.48a1.163 1.163 0 001.641.046c.464-.44.485-1.176.045-1.64l-4.932-5.212 6.518-.058c.641-.006 1.155-.497 1.149-1.098-.008-.599-.524-1.079-1.166-1.079z" fill="#241726"/></g><g><path d="M444.014 383.404h-.007l-3.937.035 4.161-2.901a1.16 1.16 0 10-1.327-1.903l-6.357 4.432.044-7.495a1.16 1.16 0 00-1.153-1.167h-.007a1.16 1.16 0 00-1.16 1.153l-.039 6.614-3.978-4.203a1.162 1.162 0 00-1.64-.045 1.162 1.162 0 00-.045 1.64l3.733 3.945-7.073.063c-.641.006-1.156.497-1.149 1.098.007.597.523 1.077 1.16 1.077h.011l7.548-.067-6.018 4.196a1.16 1.16 0 101.328 1.903l6.092-4.247-.045 7.55a1.16 1.16 0 001.153 1.167h.007a1.16 1.16 0 001.16-1.153l.042-7.131 4.24 4.48a1.163 1.163 0 001.641.046c.464-.44.485-1.176.045-1.64l-4.932-5.212 6.518-.058c.641-.006 1.155-.497 1.149-1.098-.007-.599-.524-1.079-1.165-1.079z" fill="#241726"/></g><g><path d="M142.408 261.214h-.007l-3.937.035 4.161-2.901a1.16 1.16 0 10-1.327-1.903l-6.356 4.432.044-7.495a1.16 1.16 0 00-1.153-1.167h-.007a1.16 1.16 0 00-1.16 1.153l-.039 6.614-3.978-4.203a1.162 1.162 0 00-1.64-.045 1.162 1.162 0 00-.045 1.64l3.733 3.945-7.073.063c-.641.006-1.155.497-1.149 1.098.007.597.523 1.077 1.16 1.077h.011l7.548-.067-6.018 4.196a1.16 1.16 0 101.328 1.903l6.092-4.247-.045 7.55a1.16 1.16 0 001.153 1.167h.007a1.16 1.16 0 001.16-1.153l.042-7.131 4.24 4.48a1.162 1.162 0 001.686-1.595l-4.932-5.212 6.518-.058c.641-.006 1.155-.497 1.149-1.098-.008-.598-.525-1.078-1.166-1.078z" fill="#241726"/></g></svg>
