<svg height="511pt" viewBox="0 -5 511.99982 511" width="511pt" xmlns="http://www.w3.org/2000/svg" xmlns:xlink="http://www.w3.org/1999/xlink"><linearGradient id="a" gradientUnits="userSpaceOnUse" x1="240.9785255062" x2="395.5108334754" y1="79.4088340828" y2="233.941142052"><stop offset="0" stop-color="#ecf7ff"/><stop offset="1" stop-color="#c2e0ff"/></linearGradient><linearGradient id="b"><stop offset=".0029" stop-color="#c2e0ff" stop-opacity="0"/><stop offset=".0763" stop-color="#bfdcfd" stop-opacity=".07451"/><stop offset="1" stop-color="#9eb2e7"/></linearGradient><linearGradient id="c" gradientUnits="userSpaceOnUse" x1="473.07314445" x2="391.6928177172" xlink:href="#b" y1="365.490061322" y2="284.1097345892"/><linearGradient id="d" gradientUnits="userSpaceOnUse" x1="487.433244738" x2="254.076093487" xlink:href="#b" y1="186.274423531" y2="186.274423531"/><linearGradient id="e" gradientUnits="userSpaceOnUse" x1="254.7490224036" x2="451.0796228428" y1="96.8223631338" y2="293.152963573"><stop offset="0" stop-color="#00c6f6"/><stop offset=".8567" stop-color="#0b9cfd"/><stop offset="1" stop-color="#0d94fe"/></linearGradient><linearGradient id="f"><stop offset="0" stop-color="#0d94fe" stop-opacity="0"/><stop offset=".5142" stop-color="#0681cd" stop-opacity=".513725"/><stop offset="1" stop-color="#0070a2"/></linearGradient><linearGradient id="g" gradientUnits="userSpaceOnUse" x1="400.3581704602" x2="344.8777262288" xlink:href="#f" y1="245.0602809474" y2="189.579836716"/><linearGradient id="h" gradientUnits="userSpaceOnUse" x1="313.567005324" x2="364.8320814696" y1="158.2691158112" y2="209.5341919568"><stop offset="0" stop-color="#f9f9f9"/><stop offset="1" stop-color="#e6e6e6"/></linearGradient><linearGradient id="i" gradientUnits="userSpaceOnUse" x1="405.9045383336" x2="181.4632183646" xlink:href="#f" y1="207.8802304618" y2="134.1831195794"/><linearGradient id="j"><stop offset="0" stop-color="#45425a"/><stop offset="1" stop-color="#2d3251"/></linearGradient><linearGradient id="k" gradientTransform="matrix(.709873 .709873 -.709873 .709873 1573.002039 -8.311058)" gradientUnits="userSpaceOnUse" x1="-753.7493" x2="-741.9286" xlink:href="#j" y1="1443.3013" y2="1443.3013"/><linearGradient id="l" gradientTransform="matrix(.709873 .709873 -.709873 .709873 1573.002039 -8.311058)" gradientUnits="userSpaceOnUse" x1="-734.4884" x2="-754.5899" y1="1449.3564" y2="1429.2549"><stop offset="0" stop-color="#2d3251" stop-opacity="0"/><stop offset="1" stop-color="#131830"/></linearGradient><linearGradient id="m" gradientUnits="userSpaceOnUse" x1="54.2149001582" x2="99.2613822592" y1="408.8028705212" y2="453.8493526222"><stop offset="0" stop-color="#ff6e3a"/><stop offset=".1596" stop-color="#ff6440"/><stop offset=".4266" stop-color="#ff4b52"/><stop offset=".7662" stop-color="#ff216e"/><stop offset="1" stop-color="#ff0084"/></linearGradient><linearGradient id="n" gradientTransform="matrix(.709873 .709873 -.709873 .709873 1573.002039 -8.311058)" gradientUnits="userSpaceOnUse" x1="-729.3061" x2="-762.5703" y1="1328.4481" y2="1280.3999"><stop offset="0" stop-color="#ff0084" stop-opacity="0"/><stop offset=".0737" stop-color="#f4087e" stop-opacity=".07451"/><stop offset=".3347" stop-color="#d2216b" stop-opacity=".333333"/><stop offset=".583" stop-color="#ba335e" stop-opacity=".584314"/><stop offset=".8111" stop-color="#ab3d56" stop-opacity=".811765"/><stop offset="1" stop-color="#a64153"/></linearGradient><linearGradient id="o" gradientTransform="matrix(.709873 .709873 -.709873 .709873 1573.002039 -8.311058)" gradientUnits="userSpaceOnUse" x1="-756.643" x2="-737.4905" y1="1289.3173" y2="1289.3173"><stop offset="0" stop-color="#ffd459"/><stop offset=".2296" stop-color="#ffd355"/><stop offset=".4362" stop-color="#ffcf4a"/><stop offset=".634" stop-color="#ffc838"/><stop offset=".825" stop-color="#ffbf1f"/><stop offset="1" stop-color="#ffb400"/></linearGradient><linearGradient id="p" gradientTransform="matrix(.709873 .709873 -.709873 .709873 1573.002039 -8.311058)" gradientUnits="userSpaceOnUse" x1="-736.4652" x2="-765.3004" y1="1294.9219" y2="1253.271"><stop offset="0" stop-color="#e58200" stop-opacity="0"/><stop offset=".0396" stop-color="#e27f04" stop-opacity=".039216"/><stop offset=".4671" stop-color="#c15d2f" stop-opacity=".466667"/><stop offset=".8016" stop-color="#ad4949" stop-opacity=".8"/><stop offset="1" stop-color="#a64153"/></linearGradient><radialGradient id="q" cx="252.1319648272" cy="282.1425455946" gradientUnits="userSpaceOnUse" r="150.3193492962"><stop offset="0" stop-color="#a1b5d8" stop-opacity="0"/><stop offset=".4804" stop-color="#a0b4d6" stop-opacity=".482353"/><stop offset=".6535" stop-color="#9cafcf" stop-opacity=".654902"/><stop offset=".7768" stop-color="#94a6c4" stop-opacity=".776471"/><stop offset=".8765" stop-color="#8a9bb3" stop-opacity=".878431"/><stop offset=".961" stop-color="#7c8b9d" stop-opacity=".960784"/><stop offset="1" stop-color="#748290"/></radialGradient><linearGradient id="r" gradientUnits="userSpaceOnUse" x1="451.5095022432" x2="315.6535568088" xlink:href="#f" y1="307.4092583262" y2="171.553413284"/><linearGradient id="s" gradientUnits="userSpaceOnUse" x1="78.2546155858" x2="400.4601689354" xlink:href="#j" y1="261.921452114" y2="261.921452114"/><linearGradient id="t" gradientTransform="matrix(-1.003922 0 0 -1.003922 612.050824 406.920741)" gradientUnits="userSpaceOnUse" x1="234.7998" x2="507.6757" xlink:href="#j" y1="144.4291" y2="144.4291"/><radialGradient id="u" cx="250.861903105" cy="280.1322921818" gradientUnits="userSpaceOnUse" r="135.3744644432"><stop offset="0" stop-color="#a1b5d8" stop-opacity="0"/><stop offset=".4554" stop-color="#a3b6d9" stop-opacity=".454902"/><stop offset=".6194" stop-color="#aabcdc" stop-opacity=".619608"/><stop offset=".7363" stop-color="#b5c5e0" stop-opacity=".737255"/><stop offset=".8309" stop-color="#c6d2e8" stop-opacity=".831373"/><stop offset=".9118" stop-color="#dce4f1" stop-opacity=".913725"/><stop offset=".9822" stop-color="#f7f9fc" stop-opacity=".980392"/><stop offset="1" stop-color="#fff"/></radialGradient><path d="m451.648438 29.296875-63.191407-19.03125c-43.234375-13.019531-89.351562-13.019531-132.585937 0l-63.1875 19.03125c-9.527344 2.871094-17.1875 9.988281-20.746094 19.277344l-30.222656 78.925781c-22.378906 58.449219-3.800782 124.65625 45.726562 162.921875l82.628906 63.84375c30.683594 23.710937 73.503907 23.710937 104.1875 0l82.628907-63.84375c49.527343-38.265625 68.105469-104.472656 45.726562-162.921875l-30.222656-78.925781c-3.558594-9.289063-11.21875-16.40625-20.742187-19.277344zm0 0" fill="url(#a)"/><path d="m476.863281 271.636719c-5.953125 6.796875-12.621093 13.101562-19.980469 18.785156l-82.621093 63.847656c-1.917969 1.488281-3.886719 2.871094-5.894531 4.167969 20.160156-26.894531 32.097656-60.316406 32.097656-96.515625 0-43.441406-17.199219-82.875-45.15625-111.847656zm0 0" fill="url(#c)"/><path d="m374.257812 354.265625 82.628907-63.84375c49.527343-38.265625 68.109375-104.472656 45.726562-162.921875l-30.222656-78.925781c-3.558594-9.289063-11.21875-16.40625-20.746094-19.277344l-63.1875-19.03125c-21.617187-6.511719-43.957031-9.765625-66.292969-9.765625v371.546875c18.378907 0 36.753907-5.925781 52.09375-17.78125zm0 0" fill="url(#d)"/><path d="m433.277344 51.566406-54.222656-16.332031c-37.101563-11.171875-76.675782-11.171875-113.777344 0l-54.226563 16.332031c-8.171875 2.460938-14.746093 8.570313-17.796875 16.542969l-25.9375 67.726563c-19.207031 50.15625-3.257812 106.972656 39.238282 139.8125l70.90625 54.785156c26.332031 20.34375 63.078124 20.34375 89.410156 0l70.90625-54.785156c42.5-32.839844 58.445312-89.65625 39.238281-139.8125l-25.9375-67.726563c-3.054687-7.972656-9.625-14.082031-17.800781-16.542969zm0 0" fill="url(#e)"/><path d="m459.589844 184.300781c0-3.832031-.164063-7.625-.46875-11.378906l-52.929688-52.925781c-5.605468-5.609375-14.695312-5.609375-20.304687 0l-76.820313 76.820312c-5.605468 5.605469-14.695312 5.605469-20.300781 0l-30.324219-30.324218c-5.605468-5.605469-14.695312-5.605469-20.304687 0l-13.46875 13.472656c-5.609375 5.605468-5.609375 14.695312 0 20.300781l119.667969 119.671875c65.355468-10.601562 115.253906-67.289062 115.253906-135.636719zm0 0" fill="url(#g)"/><path d="m286.394531 261.992188c6.914063 6.917968 18.128907 6.917968 25.042969 0l108.226562-108.222657c5.605469-5.605469 5.605469-14.695312 0-20.304687l-13.472656-13.46875c-5.605468-5.605469-14.695312-5.605469-20.304687 0l-76.820313 76.820312c-5.605468 5.609375-14.695312 5.609375-20.300781 0l-30.324219-30.320312c-5.609375-5.609375-14.699218-5.609375-20.304687 0l-13.46875 13.46875c-5.609375 5.605468-5.609375 14.695312 0 20.300781zm0 0" fill="url(#h)"/><path d="m366.867188 330.433594 70.90625-54.785156c42.5-32.835938 58.445312-89.65625 39.238281-139.808594l-25.933594-67.730469c-3.054687-7.96875-9.625-14.078125-17.800781-16.539063l-54.222656-16.332031c-18.550782-5.589843-37.722657-8.382812-56.890626-8.382812v318.839843c15.769532 0 31.539063-5.089843 44.703126-15.261718zm0 0" fill="url(#i)"/><path d="m8.257812 495.84375-2.917968-2.917969c-7.121094-7.117187-7.121094-18.660156 0-25.78125l6.886718-6.886719 28.699219 28.699219-6.886719 6.886719c-7.121093 7.117188-18.664062 7.117188-25.78125 0zm0 0" fill="url(#k)"/><path d="m34.039062 495.84375 6.886719-6.886719-28.699219-28.699219-6.886718 6.886719c-.265625.265625-.519532.539063-.765625.820313v24.144531c.246093.277344.5.550781.765625.816406l2.917968 2.917969c7.117188 7.117188 18.660157 7.117188 25.78125 0zm0 0" fill="url(#l)"/><path d="m20.578125 490.503906-9.902344-9.902344c-8.117187-8.117187-8.117187-21.277343 0-29.394531l85.945313-85.941406c8.117187-8.121094 21.277344-8.121094 29.394531 0l9.902344 9.902344c8.117187 8.117187 8.117187 21.277343 0 29.394531l-85.945313 85.941406c-8.117187 8.117188-21.277344 8.117188-29.394531 0zm0 0" fill="url(#m)"/><path d="m94.988281 375.5625v61.261719l47.015625-47.015625-30.628906-30.632813zm0 0" fill="url(#n)"/><path d="m122.511719 403.746094-25.074219-25.074219c-5.917969-5.917969-5.917969-15.507813 0-21.425781l21.332031-21.332032 46.496094 46.496094-21.332031 21.335938c-5.914063 5.914062-15.507813 5.914062-21.421875 0zm0 0" fill="url(#o)"/><path d="m104.644531 350.050781v35.828125l17.867188 17.867188c5.914062 5.917968 15.507812 5.917968 21.421875 0l21.335937-21.335938-46.5-46.496094-14.125 14.125zm0 0" fill="url(#p)"/><path d="m363.46875 261.921875c0 68.546875-55.566406 124.113281-124.113281 124.113281-68.542969 0-124.109375-55.566406-124.109375-124.113281 0-68.542969 55.566406-124.109375 124.109375-124.109375 68.546875 0 124.113281 55.566406 124.113281 124.109375zm0 0" fill="url(#q)"/><path d="m355.308594 150.074219c27.957031 28.972656 45.15625 68.40625 45.15625 111.847656 0 16.800781-2.574219 33-7.347656 48.230469l44.660156-34.503906c8.210937-6.347657 15.421875-13.59375 21.585937-21.511719zm0 0" fill="url(#r)"/><path d="m239.355469 100.820312c-88.972657 0-161.101563 72.128907-161.101563 161.101563 0 88.980469 72.128906 161.101563 161.101563 161.101563 88.972656 0 161.105469-72.121094 161.105469-161.101563 0-88.972656-72.128907-161.101563-161.105469-161.101563zm0 285.210938c-68.539063 0-124.109375-55.5625-124.109375-124.109375 0-68.542969 55.570312-124.113281 124.109375-124.113281 68.542969 0 124.113281 55.570312 124.113281 124.113281 0 68.550781-55.570312 124.109375-124.113281 124.109375zm0 0" fill="url(#s)"/><path d="m239.355469 398.902344c75.648437 0 136.972656-61.324219 136.972656-136.972656 0-75.648438-61.324219-136.980469-136.972656-136.980469-75.644531 0-136.972657 61.332031-136.972657 136.980469 0 75.648437 61.328126 136.972656 136.972657 136.972656zm0-261.085938c68.542969 0 124.113281 55.5625 124.113281 124.113282 0 68.539062-55.570312 124.109374-124.113281 124.109374-68.539063 0-124.109375-55.570312-124.109375-124.109374 0-68.550782 55.570312-124.113282 124.109375-124.113282zm0 0" fill="url(#t)"/><path d="m351.128906 261.921875c0 61.730469-50.042968 111.773437-111.773437 111.773437-61.726563 0-111.769531-50.042968-111.769531-111.773437 0-61.726563 50.042968-111.769531 111.769531-111.769531 61.730469 0 111.773437 50.042968 111.773437 111.769531zm0 0" fill="url(#u)"/></svg>